<svg width="50" height="49" viewBox="0 0 50 49" fill="none" xmlns="http://www.w3.org/2000/svg">
<path d="M10.7044 42.8745C9.58151 42.8745 8.62057 42.475 7.82159 41.6761C7.02262 40.8771 6.62245 39.9155 6.62109 38.7912V10.2078C6.62109 9.08493 7.02126 8.12398 7.82159 7.32501C8.62193 6.52604 9.58287 6.12587 10.7044 6.12451H39.2878C40.4107 6.12451 41.3723 6.52468 42.1726 7.32501C42.973 8.12535 43.3725 9.08629 43.3711 10.2078V38.7912C43.3711 39.9141 42.9716 40.8757 42.1726 41.6761C41.3737 42.4764 40.412 42.8759 39.2878 42.8745H10.7044ZM24.9961 24.4995L30.1003 21.437L35.2044 24.4995V10.2078H24.9961V24.4995Z" fill="#F4A261"/>
</svg>
