<svg width="50" height="49" viewBox="0 0 50 49" fill="none" xmlns="http://www.w3.org/2000/svg">
<path d="M7.84454 24.4997C7.84459 21.7078 8.52623 18.9581 9.83026 16.4895C11.1343 14.0209 13.0213 11.908 15.3273 10.3342C17.6334 8.76048 20.2888 7.77352 23.0629 7.45907C25.837 7.14462 28.646 7.51218 31.2458 8.52983C33.8456 9.54748 36.1576 11.1844 37.9811 13.2985C39.8046 15.4127 41.0844 17.94 41.7094 20.661C42.3343 23.382 42.2855 26.2145 41.5672 28.9124C40.8489 31.6103 39.4828 34.092 37.5875 36.1421L39.18 38.0237C41.8276 35.2468 43.602 31.754 44.2832 27.9781C44.9643 24.2023 44.5223 20.3096 43.012 16.7827C41.5016 13.2557 38.9892 10.2496 35.7865 8.13707C32.5837 6.02452 28.8313 4.89844 24.9945 4.89844C21.1578 4.89844 17.4054 6.02452 14.2026 8.13707C10.9998 10.2496 8.48751 13.2557 6.97713 16.7827C5.46675 20.3096 5.02474 24.2023 5.7059 27.9781C6.38706 31.754 8.16144 35.2468 10.809 38.0237L12.4015 36.1421C9.46752 32.9755 7.83963 28.8165 7.84454 24.4997ZM35.1914 33.3099C36.8794 31.3565 37.9707 28.9593 38.3355 26.4036C38.7004 23.8478 38.3233 21.241 37.2493 18.8934C36.1752 16.5458 34.4494 14.5561 32.2771 13.1611C30.1048 11.766 27.5774 11.0244 24.9958 11.0244C22.4141 11.0244 19.8868 11.766 17.7145 13.1611C15.5422 14.5561 13.8163 16.5458 12.7423 18.8934C11.6682 21.241 11.2912 23.8478 11.656 26.4036C12.0208 28.9593 13.1121 31.3565 14.8001 33.3099L16.4048 31.4111C15.1013 29.791 14.2825 27.8354 14.043 25.7698C13.8034 23.7043 14.1528 21.6132 15.051 19.7377C15.9491 17.8623 17.3593 16.2792 19.1187 15.1709C20.8782 14.0627 22.9152 13.4747 24.9945 13.4747C27.0739 13.4747 29.1109 14.0627 30.8703 15.1709C32.6298 16.2792 34.04 17.8623 34.9381 19.7377C35.8362 21.6132 36.1857 23.7043 35.9461 25.7698C35.7066 27.8354 34.8878 29.791 33.5842 31.4111L35.1914 33.3099ZM31.144 28.5275C31.8698 27.4188 32.2824 26.1345 32.3381 24.8105C32.3937 23.4866 32.0904 22.1722 31.4603 21.0065C30.8301 19.8408 29.8965 18.8672 28.7583 18.1886C27.6201 17.51 26.3197 17.1518 24.9945 17.1518C23.6694 17.1518 22.3689 17.51 21.2307 18.1886C20.0925 18.8672 19.159 19.8408 18.5288 21.0065C17.8987 22.1722 17.5954 23.4866 17.651 24.8105C17.7067 26.1345 18.1193 27.4188 18.845 28.5275L20.5355 26.5307C20.196 25.7843 20.0492 24.9646 20.1086 24.1468C20.1681 23.329 20.4318 22.5391 20.8756 21.8496C21.3194 21.1601 21.9292 20.593 22.649 20.2003C23.3689 19.8076 24.1758 19.6018 24.9958 19.6018C25.8158 19.6018 26.6226 19.8076 27.3425 20.2003C28.0623 20.593 28.6721 21.1601 29.1159 21.8496C29.5598 22.5391 29.8235 23.329 29.8829 24.1468C29.9423 24.9646 29.7955 25.7843 29.456 26.5307L31.144 28.5275ZM25.9304 26.1583C25.8154 26.0221 25.6721 25.9127 25.5105 25.8376C25.3488 25.7626 25.1728 25.7237 24.9945 25.7237C24.8163 25.7237 24.6402 25.7626 24.4786 25.8376C24.317 25.9127 24.1736 26.0221 24.0586 26.1583L10.5836 42.0833C10.4327 42.2617 10.3359 42.4795 10.3047 42.7111C10.2735 42.9427 10.3092 43.1784 10.4076 43.3904C10.506 43.6024 10.6629 43.7818 10.86 43.9074C11.057 44.0331 11.2858 44.0998 11.5195 44.0997H38.4695C38.7032 44.0998 38.9321 44.0331 39.1291 43.9074C39.3261 43.7818 39.4831 43.6024 39.5815 43.3904C39.6799 43.1784 39.7156 42.9427 39.6844 42.7111C39.6532 42.4795 39.5564 42.2617 39.4054 42.0833L25.9304 26.1583Z" fill="#F4A261"/>
</svg>
