<svg width="50" height="49" viewBox="0 0 50 49" fill="none" xmlns="http://www.w3.org/2000/svg">
<path fill-rule="evenodd" clip-rule="evenodd" d="M40.3162 13.2708C39.504 13.2708 38.7251 13.5935 38.1507 14.1678C37.5764 14.7421 37.2538 15.5211 37.2538 16.3333V18.3749H43.3787V16.3333C43.3787 15.5211 43.0561 14.7421 42.4818 14.1678C41.9074 13.5935 41.1285 13.2708 40.3162 13.2708ZM43.3787 20.4166H37.2538V37.2603L40.3162 41.854L43.3787 37.2603V20.4166ZM6.62891 9.18749V39.8123C6.62891 40.6246 6.95156 41.4035 7.52589 41.9778C8.10021 42.5522 8.87917 42.8748 9.69139 42.8748H32.1496C32.9618 42.8748 33.7408 42.5522 34.3151 41.9778C34.8894 41.4035 35.2121 40.6246 35.2121 39.8123V9.18749C35.2121 8.37526 34.8894 7.59631 34.3151 7.02198C33.7408 6.44765 32.9618 6.125 32.1496 6.125H9.69139C8.87917 6.125 8.10021 6.44765 7.52589 7.02198C6.95156 7.59631 6.62891 8.37526 6.62891 9.18749ZM20.9205 15.3125C20.9205 15.0417 21.0281 14.7821 21.2195 14.5906C21.4109 14.3992 21.6706 14.2916 21.9413 14.2916H30.108C30.3787 14.2916 30.6384 14.3992 30.8298 14.5906C31.0212 14.7821 31.1288 15.0417 31.1288 15.3125C31.1288 15.5832 31.0212 15.8428 30.8298 16.0343C30.6384 16.2257 30.3787 16.3333 30.108 16.3333H21.9413C21.6706 16.3333 21.4109 16.2257 21.2195 16.0343C21.0281 15.8428 20.9205 15.5832 20.9205 15.3125ZM21.9413 18.3749C21.6706 18.3749 21.4109 18.4825 21.2195 18.6739C21.0281 18.8654 20.9205 19.125 20.9205 19.3958C20.9205 19.6665 21.0281 19.9262 21.2195 20.1176C21.4109 20.309 21.6706 20.4166 21.9413 20.4166H30.108C30.3787 20.4166 30.6384 20.309 30.8298 20.1176C31.0212 19.9262 31.1288 19.6665 31.1288 19.3958C31.1288 19.125 31.0212 18.8654 30.8298 18.6739C30.6384 18.4825 30.3787 18.3749 30.108 18.3749H21.9413ZM20.9205 28.5832C20.9205 28.3125 21.0281 28.0528 21.2195 27.8614C21.4109 27.6699 21.6706 27.5624 21.9413 27.5624H30.108C30.3787 27.5624 30.6384 27.6699 30.8298 27.8614C31.0212 28.0528 31.1288 28.3125 31.1288 28.5832C31.1288 28.854 31.0212 29.1136 30.8298 29.3051C30.6384 29.4965 30.3787 29.6041 30.108 29.6041H21.9413C21.6706 29.6041 21.4109 29.4965 21.2195 29.3051C21.0281 29.1136 20.9205 28.854 20.9205 28.5832ZM21.9413 31.6457C21.6706 31.6457 21.4109 31.7533 21.2195 31.9447C21.0281 32.1361 20.9205 32.3958 20.9205 32.6665C20.9205 32.9373 21.0281 33.1969 21.2195 33.3884C21.4109 33.5798 21.6706 33.6874 21.9413 33.6874H30.108C30.3787 33.6874 30.6384 33.5798 30.8298 33.3884C31.0212 33.1969 31.1288 32.9373 31.1288 32.6665C31.1288 32.3958 31.0212 32.1361 30.8298 31.9447C30.6384 31.7533 30.3787 31.6457 30.108 31.6457H21.9413ZM12.7539 28.5832V31.6457H15.8164V28.5832H12.7539ZM11.733 26.5416H16.8372C17.1079 26.5416 17.3676 26.6491 17.559 26.8406C17.7505 27.032 17.858 27.2917 17.858 27.5624V32.6665C17.858 32.9373 17.7505 33.1969 17.559 33.3884C17.3676 33.5798 17.1079 33.6874 16.8372 33.6874H11.733C11.4623 33.6874 11.2027 33.5798 11.0112 33.3884C10.8198 33.1969 10.7122 32.9373 10.7122 32.6665V27.5624C10.7122 27.2917 10.8198 27.032 11.0112 26.8406C11.2027 26.6491 11.4623 26.5416 11.733 26.5416ZM18.5797 16.0342C18.7657 15.8417 18.8686 15.5838 18.8663 15.3161C18.8639 15.0485 18.7566 14.7924 18.5673 14.6032C18.378 14.4139 18.122 14.3065 17.8543 14.3042C17.5867 14.3019 17.3288 14.4048 17.1363 14.5907L13.7747 17.9523L12.4548 16.6324C12.2622 16.4464 12.0044 16.3435 11.7367 16.3459C11.4691 16.3482 11.213 16.4556 11.0238 16.6448C10.8345 16.8341 10.7271 17.0901 10.7248 17.3578C10.7225 17.6254 10.8254 17.8833 11.0113 18.0758L13.7747 20.8392L18.5797 16.0342Z" fill="#F4A261"/>
</svg>
