<svg width="40" height="38" viewBox="0 0 40 38" fill="none" xmlns="http://www.w3.org/2000/svg">
<path d="M19.6807 33.9131C24.3908 33.9131 28.7533 34.4435 32.4072 35.3398C31.6802 35.9673 30.9071 36.543 30.0928 37.0596C27.1658 36.3504 23.4607 35.9434 19.4883 35.9434C15.5926 35.9434 11.9535 36.3337 9.05371 37.0176C8.27516 36.5195 7.53327 35.9691 6.83496 35.3691C10.5129 34.4549 14.9192 33.9131 19.6807 33.9131ZM19.5547 28.0391C25.7465 28.0391 31.5683 28.7906 36.6924 30.1094C36.1072 31.1466 35.4304 32.1251 34.6729 33.0342C30.4365 31.8108 25.2499 31.1026 19.6807 31.1025C14.0567 31.1026 8.82248 31.8238 4.56348 33.0693C3.78897 32.1441 3.09921 31.1455 2.50391 30.0869C7.60685 28.782 13.3979 28.0391 19.5547 28.0391ZM39.21 20.7812C39.1764 23.0725 38.7482 25.2681 37.9932 27.3047C32.4551 25.8249 26.1814 24.9962 19.5547 24.9961C12.964 24.9961 6.72209 25.8156 1.20605 27.2803C0.456816 25.2507 0.0334037 23.0632 0 20.7812H39.21ZM19.6045 0.94043C29.7607 0.940691 38.1128 8.66332 39.1104 18.5566H36.6904C35.7037 9.99481 28.4307 3.34694 19.6045 3.34668C10.7784 3.34705 3.50626 9.99493 2.51953 18.5566H0.0976562C1.09525 8.66338 9.44839 0.940801 19.6045 0.94043ZM19.5947 5.0459C27.3327 5.04616 33.6827 10.9873 34.334 18.5566H31.918C31.2751 12.3181 26.0031 7.45241 19.5947 7.45215C13.1863 7.4524 7.91427 12.3181 7.27148 18.5566H4.85547C5.50671 10.9873 11.8568 5.04615 19.5947 5.0459ZM19.6055 10.9238C24.2373 10.9242 28.1035 14.1974 29.0205 18.5566H26.542C25.6779 15.5392 22.9005 13.3304 19.6055 13.3301C16.3101 13.3301 13.5321 15.539 12.668 18.5566H10.1895C11.1064 14.1972 14.9734 10.9239 19.6055 10.9238Z" fill="white"/>
</svg>
