<svg width="56" height="55" viewBox="0 0 56 55" fill="none" xmlns="http://www.w3.org/2000/svg">
<path d="M27.8183 48.076C39.0937 48.076 48.2343 38.9355 48.2343 27.6601C48.2343 16.3847 39.0937 7.24414 27.8183 7.24414C16.5429 7.24414 7.40234 16.3847 7.40234 27.6601C7.40234 38.9355 16.5429 48.076 27.8183 48.076Z" stroke="#8B6545" stroke-width="3.40266" stroke-linecap="round" stroke-linejoin="round"/>
<path d="M26.245 22.5309L34.6224 20.8545L32.946 29.2318C32.7705 30.1099 32.3391 30.9164 31.7062 31.5497C31.0732 32.1831 30.267 32.615 29.3891 32.791L21.0117 34.4651L22.6881 26.0878C22.864 25.2102 23.2955 24.4042 23.9285 23.7712C24.5614 23.1383 25.3674 22.7068 26.245 22.5309Z" stroke="#8B6545" stroke-width="3.40266" stroke-linecap="round" stroke-linejoin="round"/>
</svg>
