<svg xmlns="http://www.w3.org/2000/svg" width="40" height="38" viewBox="0 0 40 38" fill="none">
  <path d="M19.6807 33.9141C24.3908 33.9141 28.7533 34.4445 32.4072 35.3408C31.6802 35.9683 30.9071 36.544 30.0928 37.0605C27.1658 36.3514 23.4607 35.9444 19.4883 35.9443C15.5926 35.9443 11.9535 36.3346 9.05371 37.0186C8.27516 36.5205 7.53327 35.97 6.83496 35.3701C10.5129 34.4559 14.9192 33.9141 19.6807 33.9141ZM19.5547 28.04C25.7465 28.0401 31.5683 28.7916 36.6924 30.1104C36.1072 31.1476 35.4304 32.1261 34.6729 33.0352C30.4365 31.8118 25.2499 31.1035 19.6807 31.1035C14.0567 31.1036 8.82248 31.8248 4.56348 33.0703C3.78897 32.1451 3.09921 31.1465 2.50391 30.0879C7.60685 28.7829 13.3979 28.04 19.5547 28.04ZM39.21 20.7822C39.1764 23.0735 38.7482 25.2691 37.9932 27.3057C32.4551 25.8259 26.1814 24.9971 19.5547 24.9971C12.964 24.9971 6.72209 25.8166 1.20605 27.2812C0.456816 25.2517 0.0334037 23.0641 0 20.7822H39.21ZM19.6045 0.941406C29.7607 0.941668 38.1128 8.6643 39.1104 18.5576H36.6904C35.7037 9.99579 28.4307 3.34792 19.6045 3.34766C10.7784 3.34802 3.50626 9.99591 2.51953 18.5576H0.0976562C1.09525 8.66436 9.44839 0.941777 19.6045 0.941406ZM19.5947 5.04688C27.3327 5.04714 33.6827 10.9883 34.334 18.5576H31.918C31.2751 12.3191 26.0031 7.45339 19.5947 7.45312C13.1863 7.45338 7.91427 12.3191 7.27148 18.5576H4.85547C5.50671 10.9883 11.8568 5.04713 19.5947 5.04688ZM19.6055 10.9248C24.2373 10.9251 28.1035 14.1984 29.0205 18.5576H26.542C25.6779 15.5402 22.9005 13.3314 19.6055 13.3311C16.3101 13.3311 13.5321 15.54 12.668 18.5576H10.1895C11.1064 14.1982 14.9734 10.9248 19.6055 10.9248Z" fill="#3F3F3F"/>
</svg>