<svg width="52" height="52" viewBox="0 0 52 52" fill="none" xmlns="http://www.w3.org/2000/svg">
<path d="M33.3483 25.66C38.6694 25.66 42.9263 29.9169 42.9263 35.238C42.9263 37.111 42.3942 38.8776 41.4576 40.3463L48.0133 46.9445L45.0547 49.903L38.414 43.3687C36.9453 44.2839 35.2 44.816 33.3483 44.816C28.0271 44.816 23.7702 40.5591 23.7702 35.238C23.7702 29.9169 28.0271 25.66 33.3483 25.66ZM33.3483 29.9169C31.937 29.9169 30.5836 30.4775 29.5857 31.4754C28.5878 32.4733 28.0271 33.8268 28.0271 35.238C28.0271 36.6493 28.5878 38.0027 29.5857 39.0006C30.5836 39.9985 31.937 40.5591 33.3483 40.5591C34.7595 40.5591 36.113 39.9985 37.1109 39.0006C38.1088 38.0027 38.6694 36.6493 38.6694 35.238C38.6694 33.8268 38.1088 32.4733 37.1109 31.4754C36.113 30.4775 34.7595 29.9169 33.3483 29.9169ZM28.0271 8.63239V25.66L22.706 20.871L17.3849 25.66V8.63239H13.128V42.6876H21.6418C22.7912 44.4116 24.2598 45.8802 25.9625 46.9445H13.128C11.999 46.9445 10.9162 46.496 10.1179 45.6977C9.31959 44.8993 8.87109 43.8166 8.87109 42.6876V8.63239C8.87109 7.50339 9.31959 6.42063 10.1179 5.6223C10.9162 4.82398 11.999 4.37549 13.128 4.37549H38.6694C39.7984 4.37549 40.8811 4.82398 41.6795 5.6223C42.4778 6.42063 42.9263 7.50339 42.9263 8.63239V25.2556C41.6918 24.0849 40.2657 23.1271 38.6694 22.4673V8.63239H28.0271Z" fill="#8B6545"/>
</svg>
