<svg width="84" height="169" viewBox="0 0 84 169" fill="none" xmlns="http://www.w3.org/2000/svg">
<path d="M-5.80273 0.938477H4.79688V60.8379L30.334 6.52832L39.9443 10.9502L15.8203 62.2578L57.5938 23.6035L64.8359 31.2637L23.958 69.0859L75.834 48.3066L79.8115 58.0283L26.7129 79.2949L83.9971 79.2949V89.7822L26.7129 89.7822L79.8115 111.053L75.834 120.771L23.958 99.9951L64.8359 137.817L57.5938 145.474L15.8203 106.819L39.9443 158.131L30.334 162.553L4.79688 108.239L4.79688 168.139H-4.00293L-4.00293 9H-5.80273V0.938477ZM-31.3398 6.52832L-30.1777 9H-36.7109L-31.3398 6.52832Z" fill="#DDD0B4"/>
</svg>
