<svg width="52" height="52" viewBox="0 0 52 52" fill="none" xmlns="http://www.w3.org/2000/svg">
<path d="M25.6109 4.37549C13.8618 4.37549 4.34766 13.9109 4.34766 25.66C4.34766 37.409 13.8618 46.9445 25.6109 46.9445C37.3812 46.9445 46.9166 37.409 46.9166 25.66C46.9166 13.9109 37.3812 4.37549 25.6109 4.37549ZM25.6321 42.6876C16.2244 42.6876 8.60455 35.0677 8.60455 25.66C8.60455 16.2522 16.2244 8.63239 25.6321 8.63239C35.0399 8.63239 42.6597 16.2522 42.6597 25.66C42.6597 35.0677 35.0399 42.6876 25.6321 42.6876ZM26.6964 15.0177H23.5037V27.7884L34.6781 34.493L36.2744 31.875L26.6964 26.1921V15.0177Z" fill="#8B6545"/>
</svg>
